Coordinates
version=1
nRows=9
nColumns=36
inDegrees=yes

Units are S.I. units (second, meters, Newtons, ...)
If the header above contains a line with 'inDegrees', this indicates whether rotational values are in degrees (yes) or radians (no).

endheader
time	pelvis_tilt	pelvis_list	pelvis_rotation	pelvis_tx	pelvis_ty	pelvis_tz	hip_flexion_r	hip_adduction_r	hip_rotation_r	knee_angle_r	knee_angle_r_beta	ankle_angle_r	subtalar_angle_r	mtp_angle_r	hip_flexion_l	hip_adduction_l	hip_rotation_l	knee_angle_l	knee_angle_l_beta	ankle_angle_l	subtalar_angle_l	mtp_angle_l	lumbar_extension	lumbar_bending	lumbar_rotation	arm_flex_r	arm_add_r	arm_rot_r	elbow_flex_r	pro_sup_r	arm_flex_l	arm_add_l	arm_rot_l	elbow_flex_l	pro_sup_l
      2.42500000	    -16.93974513	     -0.51422792	     -2.19949641	      0.12678502	      0.42795458	     -0.04061492	    118.56416869	    -21.73977364	     11.66891574	    135.07859004	      2.35756615	     38.69814808	      9.98926623	     -7.49999987	    119.85634514	    -18.40165454	     14.52283916	    137.73584129	      2.40394393	     26.94844594	      8.88259687	     -7.49999987	    -56.50492329	      1.36168284	      2.33113832	    101.62864403	    -26.74315498	     58.77610855	     60.26889106	     70.42434780	    105.71748285	    -13.52897881	     59.80157012	     48.97384273	     62.07805038
      2.42916670	    -17.79417128	     -0.46356497	     -2.34694113	      0.13133736	      0.43079830	     -0.04319968	    118.52229112	    -21.35315472	     11.26126592	    134.43410370	      2.34631774	     38.57173203	      9.20264185	     -7.49999987	    119.84250552	    -18.69662069	     14.12874373	    137.06263697	      2.39219430	     26.76337132	      9.13046287	     -7.49999987	    -55.51402582	      1.30025539	      2.62617879	    101.49284580	    -26.46166824	     59.22709423	     60.43481739	     70.54527326	    105.07149471	    -12.67719892	     58.94350515	     49.06806061	     62.14375497
      2.43333330	    -18.54344349	     -0.27941437	     -2.46940689	      0.13285787	      0.43318592	     -0.04122446	    118.55009289	    -21.03198104	     10.97492925	    133.83068263	      2.33578605	     38.58186014	      9.02850898	     -7.49999987	    119.83027517	    -19.05058606	     13.92970594	    136.16759086	      2.37657279	     26.80812505	      8.68063920	     -7.49999987	    -54.66324635	      1.11359471	      2.85877156	    100.82083924	    -26.18741101	     57.43937178	     61.40252423	     78.32933622	    103.59872187	    -11.67515638	     54.64779484	     49.82429811	     67.78100336
      2.43750000	    -19.26024344	     -0.06382237	     -2.56392749	      0.13613150	      0.44018378	     -0.04458578	    118.39647609	    -20.82061031	     10.80335022	    133.05256824	      2.32220539	     38.49107538	      8.76387902	     -7.49999987	    119.82406581	    -19.13940771	     13.48517798	    135.18026126	      2.35934064	     26.69083358	      7.38815880	     -7.49999987	    -53.94556117	      1.18613572	      2.77418526	    100.62988122	    -25.53572818	     57.19779964	     62.37792999	     74.50887904	    102.75562859	    -11.89386621	     53.80684470	     52.12380057	     66.02556627
      2.44166670	    -19.87292511	      0.07407445	     -2.59617650	      0.13576245	      0.44429786	     -0.04200449	    118.00484729	    -20.36717432	     10.53431305	    132.18067711	      2.30698802	     38.55511009	      8.84322687	     -7.49999987	    119.81021206	    -19.31403672	     13.17375946	    134.11934471	      2.34082416	     26.45694021	      6.14565648	     -7.49999987	    -53.40964668	      1.12521075	      2.63061579	    100.65233634	    -24.95848027	     57.14778218	     63.45525778	     69.63536395	    102.15943105	    -12.00622483	     52.39497009	     54.44932958	     63.76836742
      2.44583330	    -20.83263919	      0.17093690	     -2.57588685	      0.13460958	      0.45295160	     -0.04180289	    117.57022327	    -19.65640500	      9.86640213	    130.76867853	      2.28234400	     37.99659160	      7.48009139	     -7.49999987	    119.78077746	    -19.28328517	     12.50373053	    132.67342960	      2.31558818	     26.08424246	      4.61645092	     -7.49999987	    -52.53264389	      0.98487902	      3.03848946	    100.30366496	    -25.02188465	     55.35906649	     64.23584654	     80.63613244	    101.72209707	    -10.64747155	     50.35511599	     54.16382403	     70.47778886
      2.45000000	    -21.92880557	      0.05452066	     -2.59161536	      0.13736399	      0.46227503	     -0.04038078	    116.90158247	    -18.90203927	      8.85765865	    129.24929464	      2.25582575	     37.88050784	      6.18728938	     -7.49999987	    119.72290933	    -19.19640689	     12.12037947	    131.09857941	      2.28810186	     25.62610112	      2.90932353	     -7.49999987	    -51.75046380	      1.20986013	      3.02616433	     99.92207032	    -24.17334380	     54.20663733	     65.26564442	     76.21592870	    100.99019121	    -11.18101566	     49.08814821	     57.28730910	     68.00492995
      2.45416670	    -22.69194494	      0.01543564	     -2.67112853	      0.13896649	      0.46514237	     -0.04041534	    116.51044049	    -18.24634766	      8.30675117	    128.27569790	      2.23883328	     37.26921438	      5.29484223	     -7.49999987	    119.64026931	    -19.21042469	     11.91342530	    130.11809726	      2.27098921	     25.77101611	      2.18685526	     -7.49999987	    -50.93089692	      1.20147734	      3.61486728	    100.13042218	    -24.40412448	     54.13311649	     66.03992976	     82.03353762	    100.46294408	     -9.95999635	     47.26868616	     57.50210088	     72.09224753
      2.45833330	    -23.47228682	     -0.11190418	     -2.55505057	      0.14136422	      0.47152255	     -0.03785372	    116.13201054	    -17.69147728	      7.75524839	    127.40381320	      2.22361602	     36.80579062	      4.11562264	     -7.49999987	    119.48667054	    -19.13555803	     11.66235220	    129.04218413	      2.25221099	     25.69824811	      1.28039420	     -7.49999987	    -50.26019576	      1.27514836	      3.82487010	    100.22145146	    -24.17051811	     53.96923619	     67.35179034	     80.65869408	    100.18495258	     -9.63458864	     46.61815844	     59.34301768	     71.35423432
